<?xml version="1.0" standalone="no"?>
<!DOCTYPE svg PUBLIC "-//W3C//DTD SVG 20010904//EN"
 "http://www.w3.org/TR/2001/REC-SVG-20010904/DTD/svg10.dtd">
<svg version="1.0" xmlns="http://www.w3.org/2000/svg"
 width="423.000000pt" height="423.000000pt" viewBox="0 0 423.000000 423.000000"
 preserveAspectRatio="xMidYMid meet">
<metadata>
Created by potrace 1.14, written by Peter Selinger 2001-2017
</metadata>
<g transform="translate(0.000000,423.000000) scale(0.100000,-0.100000)"
fill="#000000" stroke="none">
<path d="M1830 3245 c-36 -7 -96 -25 -135 -40 -84 -32 -84 -32 -160 -11 -72
20 -263 29 -325 15 -85 -19 -172 -69 -240 -138 -68 -68 -123 -163 -135 -231
-3 -19 -8 -44 -10 -55 -2 -11 -4 -48 -4 -83 -1 -59 -3 -63 -28 -72 -16 -6 -35
-15 -43 -20 -8 -6 -24 -14 -35 -19 -48 -21 -140 -114 -179 -180 -144 -247 -63
-563 186 -733 116 -78 229 -109 381 -103 l91 4 57 -53 c118 -109 286 -157 471
-135 161 20 259 60 435 180 40 27 75 49 78 49 3 0 24 -9 48 -19 66 -30 111
-40 179 -36 77 4 131 24 223 84 82 54 130 104 166 173 20 39 41 61 95 97 123
82 186 195 187 331 0 60 -6 87 -26 133 -30 65 -105 145 -166 177 -37 18 -41
24 -41 58 0 74 -70 175 -136 196 -14 4 -26 24 -38 67 -55 183 -228 319 -460
364 -93 17 -352 17 -436 0z"/>
</g>
</svg>
